REM DIRINDEX 1\8,1\2\11,1\3\12,1\3\14,1\5\15,1\5\16,1\6\17,1\6\18,1\4\19,1\4\20,1\4\21,1\4\22,1\7\23,1\7\24,1\7\25,1\2\9\26,1\2\9\27,1\2\10\28,1\2\10\29,1\2\10\30,1\2\10\31,1\2\10\32,1\3\13\33,1\3\13\34,1\3\13\35
REM DIRNAME folder01,folder02,folder03,folder04,folder05,folder06,folder07,folder08,folder09,folder10,folder11,folder12,folder13,folder14,folder15,folder16,folder17,folder18,folder19,folder20,folder21,folder22,folder23,folder24,folder25,folder26,folder27,folder28,folder29,folder30,folder31,folder32,folder33,folder34,folder35
TITLE ""
FILE "151 151_—á•¶UNIT5_SET5.mp3" MP3
  TRACK 01 AUDIO
    TITLE "22:cjc123_3923"
    INDEX 01 00:00:00
  TRACK 02 AUDIO
    TITLE "0:"
    INDEX 01 00:02:55
  TRACK 03 AUDIO
    TITLE "19:cjc123_3924"
    INDEX 01 00:03:31
  TRACK 04 AUDIO
    TITLE "0:"
    INDEX 01 00:07:39
  TRACK 05 AUDIO
    TITLE "20:cjc123_3925"
    INDEX 01 00:08:01
  TRACK 06 AUDIO
    TITLE "0:"
    INDEX 01 00:12:24
  TRACK 07 AUDIO
    TITLE "21:cjc123_3926"
    INDEX 01 00:12:50
  TRACK 08 AUDIO
    TITLE "0:"
    INDEX 01 00:16:57
  TRACK 09 AUDIO
    TITLE "19:cjc123_3927"
    INDEX 01 00:17:27
  TRACK 10 AUDIO
    TITLE "0:"
    INDEX 01 00:22:46
  TRACK 11 AUDIO
    TITLE "20:cjc123_3928"
    INDEX 01 00:23:12
  TRACK 12 AUDIO
    TITLE "0:"
    INDEX 01 00:28:55
  TRACK 13 AUDIO
    TITLE "21:cjc123_3929"
    INDEX 01 00:29:11
  TRACK 14 AUDIO
    TITLE "0:"
    INDEX 01 00:34:30
  TRACK 15 AUDIO
    TITLE "19:cjc123_3930"
    INDEX 01 00:35:15
  TRACK 16 AUDIO
    TITLE "0:"
    INDEX 01 00:42:59
  TRACK 17 AUDIO
    TITLE "20:cjc123_3931"
    INDEX 01 00:43:19
  TRACK 18 AUDIO
    TITLE "0:"
    INDEX 01 00:49:74
  TRACK 19 AUDIO
    TITLE "21:cjc123_3932"
    INDEX 01 00:50:31
  TRACK 20 AUDIO
    TITLE "0:"
    INDEX 01 00:57:68
  TRACK 21 AUDIO
    TITLE "19:cjc123_3933"
    INDEX 01 00:58:52
  TRACK 22 AUDIO
    TITLE "0:"
    INDEX 01 01:02:73
  TRACK 23 AUDIO
    TITLE "20:cjc123_3934"
    INDEX 01 01:03:26
  TRACK 24 AUDIO
    TITLE "0:"
    INDEX 01 01:08:21
  TRACK 25 AUDIO
    TITLE "21:cjc123_3935"
    INDEX 01 01:08:48
  TRACK 26 AUDIO
    TITLE "0:"
    INDEX 01 01:12:68
  TRACK 27 AUDIO
    TITLE "19:cjc123_3936"
    INDEX 01 01:13:44
  TRACK 28 AUDIO
    TITLE "0:"
    INDEX 01 01:20:73
  TRACK 29 AUDIO
    TITLE "20:cjc123_3937"
    INDEX 01 01:21:31
  TRACK 30 AUDIO
    TITLE "0:"
    INDEX 01 01:27:63
  TRACK 31 AUDIO
    TITLE "21:cjc123_3938"
    INDEX 01 01:28:16
  TRACK 32 AUDIO
    TITLE "0:"
    INDEX 01 01:35:47
  TRACK 33 AUDIO
    TITLE "19:cjc123_3939"
    INDEX 01 01:36:17
  TRACK 34 AUDIO
    TITLE "0:"
    INDEX 01 01:42:30
  TRACK 35 AUDIO
    TITLE "20:cjc123_3940"
    INDEX 01 01:42:63
  TRACK 36 AUDIO
    TITLE "0:"
    INDEX 01 01:50:21
  TRACK 37 AUDIO
    TITLE "21:cjc123_3941"
    INDEX 01 01:50:47
  TRACK 38 AUDIO
    TITLE "0:"
    INDEX 01 01:56:57
  TRACK 39 AUDIO
    TITLE "19:cjc123_3942"
    INDEX 01 01:57:35
  TRACK 40 AUDIO
    TITLE "0:"
    INDEX 01 02:01:37
  TRACK 41 AUDIO
    TITLE "20:cjc123_3943"
    INDEX 01 02:01:66
  TRACK 42 AUDIO
    TITLE "0:"
    INDEX 01 02:06:61
  TRACK 43 AUDIO
    TITLE "21:cjc123_3944"
    INDEX 01 02:07:12
  TRACK 44 AUDIO
    TITLE "0:"
    INDEX 01 02:11:14
  TRACK 45 AUDIO
    TITLE "19:cjc123_3945"
    INDEX 01 02:12:01
  TRACK 46 AUDIO
    TITLE "0:"
    INDEX 01 02:17:22
  TRACK 47 AUDIO
    TITLE "20:cjc123_3946"
    INDEX 01 02:17:44
  TRACK 48 AUDIO
    TITLE "0:"
    INDEX 01 02:23:13
  TRACK 49 AUDIO
    TITLE "21:cjc123_3947"
    INDEX 01 02:23:42
  TRACK 50 AUDIO
    TITLE "0:"
    INDEX 01 02:28:63
  TRACK 51 AUDIO
    TITLE "19:cjc123_3948"
    INDEX 01 02:29:27
  TRACK 52 AUDIO
    TITLE "0:"
    INDEX 01 02:34:46
  TRACK 53 AUDIO
    TITLE "20:cjc123_3949"
    INDEX 01 02:35:04
  TRACK 54 AUDIO
    TITLE "0:"
    INDEX 01 02:41:07
  TRACK 55 AUDIO
    TITLE "21:cjc123_3950"
    INDEX 01 02:41:34
  TRACK 56 AUDIO
    TITLE "0:"
    INDEX 01 02:46:55
  TRACK 57 AUDIO
    TITLE "19:cjc123_3951"
    INDEX 01 02:47:25
  TRACK 58 AUDIO
    TITLE "0:"
    INDEX 01 02:50:08
  TRACK 59 AUDIO
    TITLE "20:cjc123_3952"
    INDEX 01 02:50:47
  TRACK 60 AUDIO
    TITLE "0:"
    INDEX 01 02:53:61
  TRACK 61 AUDIO
    TITLE "21:cjc123_3953"
    INDEX 01 02:54:21
  TRACK 62 AUDIO
    TITLE "0:"
    INDEX 01 02:57:06
  TRACK 63 AUDIO
    TITLE "19:cjc123_3954"
    INDEX 01 02:57:63
  TRACK 64 AUDIO
    TITLE "0:"
    INDEX 01 03:02:74
  TRACK 65 AUDIO
    TITLE "20:cjc123_3955"
    INDEX 01 03:03:28
  TRACK 66 AUDIO
    TITLE "0:"
    INDEX 01 03:10:24
  TRACK 67 AUDIO
    TITLE "21:cjc123_3956"
    INDEX 01 03:10:50
  TRACK 68 AUDIO
    TITLE "0:"
    INDEX 01 03:15:61
  TRACK 69 AUDIO
    TITLE "19:cjc123_3957"
    INDEX 01 03:16:35
  TRACK 70 AUDIO
    TITLE "0:"
    INDEX 01 03:22:65
  TRACK 71 AUDIO
    TITLE "20:cjc123_3958"
    INDEX 01 03:23:17
  TRACK 72 AUDIO
    TITLE "0:"
    INDEX 01 03:29:33
  TRACK 73 AUDIO
    TITLE "21:cjc123_3959"
    INDEX 01 03:29:61
  TRACK 74 AUDIO
    TITLE "0:"
    INDEX 01 03:36:16
  TRACK 75 AUDIO
    TITLE "19:cjc123_3960"
    INDEX 01 03:37:07
  TRACK 76 AUDIO
    TITLE "0:"
    INDEX 01 03:41:56
  TRACK 77 AUDIO
    TITLE "20:cjc123_3961"
    INDEX 01 03:42:10
  TRACK 78 AUDIO
    TITLE "0:"
    INDEX 01 03:46:53
  TRACK 79 AUDIO
    TITLE "21:cjc123_3962"
    INDEX 01 03:47:06
  TRACK 80 AUDIO
    TITLE "0:"
    INDEX 01 03:51:54
  TRACK 81 AUDIO
    TITLE "19:cjc123_3963"
    INDEX 01 03:52:23
  TRACK 82 AUDIO
    TITLE "0:"
    INDEX 01 03:58:56
  TRACK 83 AUDIO
    TITLE "20:cjc123_3964"
    INDEX 01 03:59:25
  TRACK 84 AUDIO
    TITLE "0:"
    INDEX 01 04:06:30
  TRACK 85 AUDIO
    TITLE "21:cjc123_3965"
    INDEX 01 04:06:58
  TRACK 86 AUDIO
    TITLE "0:"
    INDEX 01 04:13:19
  TRACK 87 AUDIO
    TITLE "19:cjc123_3966"
    INDEX 01 04:13:72
  TRACK 88 AUDIO
    TITLE "0:"
    INDEX 01 04:19:59
  TRACK 89 AUDIO
    TITLE "20:cjc123_3967"
    INDEX 01 04:20:13
  TRACK 90 AUDIO
    TITLE "0:"
    INDEX 01 04:25:20
  TRACK 91 AUDIO
    TITLE "21:cjc123_3968"
    INDEX 01 04:25:53
  TRACK 92 AUDIO
    TITLE "0:"
    INDEX 01 04:31:40
